<svg width="165" height="62" viewBox="0 0 165 62" fill="none" xmlns="http://www.w3.org/2000/svg">
<path d="M45.7849 27.3324C44.9322 28.1903 44.2792 29.2258 43.8724 30.3647C43.4656 31.5039 43.3151 32.7187 43.4314 33.9226L43.3909 33.8821C43.5106 35.2994 43.3194 36.7255 42.8309 38.0613C42.3424 39.3969 41.5684 40.6099 40.5629 41.6156C39.5571 42.6211 38.3442 43.3954 37.0083 43.8836C35.6727 44.3721 34.2465 44.5633 32.8294 44.4436L32.8699 44.4841C31.1748 44.3264 29.4722 44.6952 27.9942 45.5405C26.5164 46.3858 25.3351 47.6663 24.6117 49.2076C23.8884 50.7488 23.6577 52.4755 23.9516 54.1526C24.2457 55.8295 25.0496 57.3751 26.254 58.5784C27.4584 59.7817 29.0046 60.5842 30.6818 60.8765C32.3592 61.169 34.0856 60.9368 35.6262 60.2121C37.1667 59.4871 38.4461 58.305 39.2901 56.8263C40.134 55.3476 40.5015 53.6448 40.3422 51.9496L40.3849 51.9901C40.2652 50.5731 40.4562 49.1468 40.9447 47.811C41.4332 46.4754 42.2074 45.2624 43.2129 44.2567C44.2187 43.2511 45.4317 42.4769 46.7673 41.9887C48.1031 41.5002 49.5291 41.3089 50.9464 41.4286L50.9037 41.3881C52.2883 41.5126 53.6822 41.2855 54.9559 40.728C56.2294 40.1704 57.3418 39.3004 58.1896 38.1985C59.0374 37.0967 59.5936 35.7985 59.806 34.4246C60.0186 33.0505 59.8809 31.6452 59.4057 30.3384C58.9305 29.0318 58.1331 27.8663 57.0876 26.9499C56.042 26.0335 54.782 25.3958 53.4243 25.0961C52.0667 24.7964 50.6553 24.8441 49.321 25.2349C47.9868 25.626 46.7729 26.3473 45.7917 27.3324H45.7849Z" fill="white"/>
<path d="M29.1866 39.1784L29.1439 39.1379C30.3483 39.2591 31.5647 39.1113 32.7052 38.705C33.8455 38.2986 34.8814 37.6441 35.7377 36.7884C36.5939 35.9327 37.2495 34.8973 37.6565 33.7572C38.0638 32.6171 38.2125 31.401 38.0921 30.1964L38.1349 30.2369C38.0152 28.8196 38.2064 27.3935 38.6947 26.0577C39.1832 24.7221 39.9574 23.5091 40.9629 22.5034C41.9687 21.4979 43.1816 20.7236 44.5172 20.2354C45.8531 19.7468 47.2791 19.5557 48.6964 19.6754L48.6536 19.6349C50.349 19.7942 52.052 19.4264 53.5307 18.5821C55.0097 17.7378 56.1918 16.4578 56.9163 14.9168C57.6408 13.3759 57.8723 11.649 57.5794 9.97157C57.2864 8.29417 56.4832 6.74801 55.279 5.54395C54.075 4.33991 52.5288 3.53657 50.8514 3.24357C49.1741 2.95055 47.4472 3.1821 45.9062 3.90665C44.3651 4.63117 43.0853 5.81343 42.2409 7.29215C41.3965 8.77085 41.0288 10.474 41.1881 12.1694L41.1476 12.1266C41.2676 13.5439 41.0768 14.9702 40.5885 16.3061C40.1003 17.642 39.326 18.8552 38.3205 19.861C37.3148 20.8665 36.1016 21.6407 34.7657 22.129C33.4297 22.6172 32.0034 22.808 30.5861 22.6881L30.6266 22.7309C29.4222 22.6096 28.2056 22.7574 27.0653 23.1638C25.925 23.5699 24.8891 24.2246 24.0328 25.0803C23.1764 25.936 22.521 26.9714 22.1138 28.1115C21.7067 29.2516 21.558 30.4677 21.6784 31.6724L21.6379 31.6319C21.7571 33.0489 21.5657 34.475 21.0772 35.8106C20.5885 37.1459 19.8145 38.3589 18.809 39.3644C17.8034 40.37 16.5905 41.144 15.255 41.6327C13.9195 42.1211 12.4935 42.3126 11.0764 42.1934L11.1169 42.2339C9.42156 42.0746 7.71838 42.4422 6.23966 43.2866C4.76096 44.1311 3.5787 45.4109 2.85417 46.9519C2.12963 48.4929 1.89806 50.2198 2.19108 51.8972C2.48409 53.5745 3.28743 55.1207 4.49148 56.3247C5.69554 57.5289 7.2417 58.3322 8.9191 58.6251C10.5965 58.9181 12.3234 58.6865 13.8644 57.962C15.4053 57.2375 16.6853 56.0554 17.5296 54.5767C18.374 53.0978 18.7417 51.3947 18.5824 49.6994L18.6251 49.7399C18.5054 48.3226 18.6967 46.8965 19.1852 45.5607C19.6734 44.2251 20.4476 43.0121 21.4532 42.0064C22.4589 41.0009 23.6719 40.2266 25.0075 39.7384C26.3433 39.2499 27.7694 39.0587 29.1866 39.1784Z" fill="white"/>
<path d="M14.1073 34.6632C14.9601 33.8055 15.613 32.77 16.0194 31.6308C16.4259 30.4917 16.5758 29.2767 16.4585 28.0729L16.5013 28.1134C16.3815 26.6959 16.5727 25.2692 17.0614 23.9331C17.5502 22.5971 18.3247 21.3839 19.3309 20.3781C20.3371 19.3724 21.5505 18.5985 22.8868 18.1103C24.223 17.6222 25.6498 17.4316 27.0673 17.5519L27.0245 17.5114C28.7192 17.6702 30.4218 17.3023 31.8998 16.4581C33.3778 15.6138 34.5593 14.3341 35.2836 12.7937C36.0076 11.2532 36.2389 9.52688 35.946 7.85011C35.653 6.17335 34.8498 4.62778 33.6463 3.42416C32.4427 2.22055 30.897 1.41748 29.2203 1.12448C27.5436 0.831463 25.8172 1.06281 24.2768 1.7869C22.7362 2.511 21.4567 3.69263 20.6125 5.17066C19.768 6.64868 19.4002 8.35117 19.559 10.0459L19.5185 10.0054C19.6382 11.4226 19.447 12.8488 18.9585 14.1845C18.47 15.5202 17.6961 16.7332 16.6904 17.7388C15.6848 18.7445 14.4718 19.5185 13.1361 20.0069C11.8004 20.4954 10.3742 20.6866 8.95702 20.5669L8.99752 20.6074C7.6128 20.4832 6.21913 20.7107 4.94568 21.2685C3.67222 21.8262 2.56016 22.6965 1.71256 23.7986C0.864965 24.9004 0.30926 26.1987 0.096905 27.5725C-0.115427 28.9466 0.022475 30.3519 0.497833 31.6583C0.97319 32.9649 1.77066 34.1301 2.8163 35.0463C3.86194 35.9628 5.12194 36.6002 6.47955 36.8999C7.83713 37.1994 9.2484 37.1514 10.5826 36.7606C11.9167 36.3696 13.1306 35.6482 14.1118 34.6632H14.1073Z" fill="white"/>
<path d="M87.9382 39.975V46.5H84.0232C81.2332 46.5 79.0582 45.825 77.4982 44.475C75.9382 43.095 75.1582 40.86 75.1582 37.77V27.78H72.0982V21.39H75.1582V15.27H82.8532V21.39H87.8932V27.78H82.8532V37.86C82.8532 38.61 83.0332 39.15 83.3932 39.48C83.7532 39.81 84.3532 39.975 85.1932 39.975H87.9382ZM96.0944 18.78C94.7444 18.78 93.6344 18.39 92.7644 17.61C91.9244 16.8 91.5044 15.81 91.5044 14.64C91.5044 13.44 91.9244 12.45 92.7644 11.67C93.6344 10.86 94.7444 10.455 96.0944 10.455C97.4144 10.455 98.4944 10.86 99.3344 11.67C100.204 12.45 100.639 13.44 100.639 14.64C100.639 15.81 100.204 16.8 99.3344 17.61C98.4944 18.39 97.4144 18.78 96.0944 18.78ZM99.9194 21.39V46.5H92.2244V21.39H99.9194ZM103.966 33.9C103.966 31.32 104.446 29.055 105.406 27.105C106.396 25.155 107.731 23.655 109.411 22.605C111.091 21.555 112.966 21.03 115.036 21.03C116.806 21.03 118.351 21.39 119.671 22.11C121.021 22.83 122.056 23.775 122.776 24.945V21.39H130.471V46.5H122.776V42.945C122.026 44.115 120.976 45.06 119.626 45.78C118.306 46.5 116.761 46.86 114.991 46.86C112.951 46.86 111.091 46.335 109.411 45.285C107.731 44.205 106.396 42.69 105.406 40.74C104.446 38.76 103.966 36.48 103.966 33.9ZM122.776 33.945C122.776 32.025 122.236 30.51 121.156 29.4C120.106 28.29 118.816 27.735 117.286 27.735C115.756 27.735 114.451 28.29 113.371 29.4C112.321 30.48 111.796 31.98 111.796 33.9C111.796 35.82 112.321 37.35 113.371 38.49C114.451 39.6 115.756 40.155 117.286 40.155C118.816 40.155 120.106 39.6 121.156 38.49C122.236 37.38 122.776 35.865 122.776 33.945ZM151.338 21.12C154.278 21.12 156.618 22.08 158.358 24C160.128 25.89 161.013 28.5 161.013 31.83V46.5H153.363V32.865C153.363 31.185 152.928 29.88 152.058 28.95C151.188 28.02 150.018 27.555 148.548 27.555C147.078 27.555 145.908 28.02 145.038 28.95C144.168 29.88 143.733 31.185 143.733 32.865V46.5H136.038V21.39H143.733V24.72C144.513 23.61 145.563 22.74 146.883 22.11C148.203 21.45 149.688 21.12 151.338 21.12Z" fill="white"/>
</svg>
